Coordinates
version=1
nRows=16
nColumns=36
inDegrees=yes

Units are S.I. units (second, meters, Newtons, ...)
If the header above contains a line with 'inDegrees', this indicates whether rotational values are in degrees (yes) or radians (no).

endheader
time	pelvis_tilt	pelvis_list	pelvis_rotation	pelvis_tx	pelvis_ty	pelvis_tz	hip_flexion_r	hip_adduction_r	hip_rotation_r	knee_angle_r	knee_angle_r_beta	ankle_angle_r	subtalar_angle_r	mtp_angle_r	hip_flexion_l	hip_adduction_l	hip_rotation_l	knee_angle_l	knee_angle_l_beta	ankle_angle_l	subtalar_angle_l	mtp_angle_l	lumbar_extension	lumbar_bending	lumbar_rotation	arm_flex_r	arm_add_r	arm_rot_r	elbow_flex_r	pro_sup_r	arm_flex_l	arm_add_l	arm_rot_l	elbow_flex_l	pro_sup_l
     44.45000000	      7.98692056	     -7.69732653	    182.96252163	      0.41885263	      0.83311218	      0.74036366	     31.28191093	    -10.14469423	     -6.62929289	      5.98826845	      0.10451500	    -28.19127387	      0.34744804	     -7.49999987	     11.42859250	      6.89667158	     -1.62030284	     56.38747566	      0.98414711	      2.96308959	     -5.78327148	     -7.49999987	     -1.31588577	     -8.15365946	     -6.66123834	     -3.47959642	     -6.08372785	     -9.02242239	      9.46874901	     85.17975328	     19.58462020	    -18.67894001	   -359.88951047	     14.02980926	     91.00119539
     44.46666670	      8.02581389	     -4.88170820	    182.09102703	      0.41171292	      0.83422238	      0.73320435	     30.72416577	     -6.69929501	     -7.46943632	     11.08473323	      0.19346509	    -24.87655744	     -2.23850104	     -7.49999987	     13.13359987	      2.62211830	     -2.30764467	     63.03402767	      1.10015132	      0.20578709	     -6.19310265	     -7.49999987	      0.08401514	     -5.12162804	     -6.82360084	     -2.69944691	     -7.30038528	     -5.80553182	      8.84706264	     91.34684644	     16.75075408	    -17.31994441	   -368.18859836	     14.42877796	     96.79334512
     44.48333330	      7.50414195	     -2.33445075	    181.43867891	      0.41028189	      0.83806168	      0.72690115	     29.46913885	     -3.60216149	     -7.93770536	     16.14660280	      0.28181138	    -22.06631615	     -5.00206585	     -7.49999987	     15.03924256	     -1.29093418	     -2.47140106	     69.45993681	      1.21230460	     -3.18804498	     -7.13066343	     -7.49999987	      0.47397774	     -2.56497565	     -6.22800929	     -2.33380541	     -7.92091539	     -5.10470048	      8.78730917	     90.12505983	     15.43154421	    -16.31198392	   -367.96300231	     13.48591518	     94.96124288
     44.50000000	      6.72110380	     -0.39192400	    181.16222826	      0.41304672	      0.84270683	      0.72182783	     27.75336160	     -1.06209206	     -7.98274540	     19.81274164	      0.34579758	    -20.17758529	     -7.99078789	     -7.49999987	     17.50676715	     -4.23889188	     -2.06982640	     74.93247471	      1.30781840	     -6.57964764	     -8.42218379	     -7.49999987	     -0.03873726	     -0.83449632	     -5.50603162	     -1.91028697	     -8.24291842	     -4.06286282	      9.10413676	     89.06673875	     14.61244554	    -15.43736579	   -368.06787012	     12.98238008	     93.26319032
     44.51666670	      5.89268666	      0.71167595	    181.14894698	      0.41741838	      0.84698250	      0.71701809	     26.01496767	      0.65809199	     -7.90604624	     22.39023526	      0.39078333	    -19.59175787	    -10.45048683	     -7.49999987	     20.46119662	     -6.00385575	     -1.41788789	     78.85422931	      1.37626593	     -9.42131193	     -9.92736389	     -7.49999987	     -1.21581980	     -0.12168578	     -4.56668088	     -1.41586121	     -8.50910006	     -1.17931349	      9.92431369	     91.24646822	     14.29189060	    -14.68217301	   -369.90810835	     12.56392629	     94.89503003
     44.53333330	      5.08336011	      1.08232071	    181.39466622	      0.42318378	      0.85294274	      0.71355848	     24.40153347	      1.49786971	     -7.76094307	     24.13402404	      0.42121818	    -19.37990661	    -12.26251475	     -7.49999987	     23.56546350	     -6.59930077	     -0.62591017	     80.96601694	      1.41312358	    -11.81055860	    -11.94893949	     -7.49999987	     -2.92211779	     -0.15038016	     -3.60794061	     -0.43608264	     -8.38851564	     -1.05553398	     10.59738152	     91.24599558	     14.08041010	    -14.21348025	   -370.00894741	     12.62128841	     94.99713211
     44.55000000	      4.58667911	      0.96041510	    181.68202065	      0.43121897	      0.86159404	      0.71287883	     23.13332235	      1.60946885	     -7.37959535	     25.20752880	      0.43995437	    -18.92714520	    -13.59057131	     -7.49999987	     26.79224930	     -6.25631781	     -0.04536126	     81.33147498	      1.41950202	    -13.63865668	    -14.42195263	     -7.49999987	     -4.76405945	     -0.60869762	     -2.51607002	      0.77787820	     -8.42965153	     -0.82214012	     11.71672786	     91.20828242	     14.19827135	    -13.78849229	   -370.04963311	     12.65021474	     95.11250794
     44.56666670	      4.29336574	      0.72828728	    181.87883958	      0.43962630	      0.87132689	      0.71458237	     22.08862034	      1.34970514	     -6.75655271	     25.80001935	      0.45029528	    -18.25664447	    -14.75629199	     -7.49999987	     29.62808439	     -5.46601833	      0.06210109	     80.00350885	      1.39632464	    -15.17580756	    -17.14241176	     -7.49999987	     -6.78699519	     -1.03258462	     -1.35213699	      2.13717610	     -9.05088484	      1.53605367	     13.64634051	     89.60604453	     14.70211126	    -13.30817382	   -369.63858836	     12.73922600	     96.59705690
     44.58333330	      4.21721486	      0.54032536	    181.93716956	      0.44395338	      0.87795398	      0.71553918	     21.08497902	      1.12640283	     -5.81216050	     25.80197103	      0.45032935	    -17.53659062	    -16.31893165	     -7.49999987	     31.79601854	     -4.62017339	     -0.18323629	     77.21192576	      1.34760233	    -16.88600662	    -19.48488336	     -7.49999987	     -8.50930259	     -1.34356318	     -0.43376509	      3.92938094	     -9.69090705	      1.89041454	     15.39660367	     87.63758407	     15.03534718	    -12.89141466	   -368.31518839	     13.07045316	     94.28960364
     44.60000000	      4.09592164	      0.58999112	    182.03804806	      0.44278788	      0.88054112	      0.71410595	     19.72721677	      1.25105055	     -5.10346543	     25.18076954	      0.43948734	    -16.37734715	    -17.43298526	     -7.49999987	     33.20073451	     -4.04550631	     -0.29109985	     73.49365525	      1.28270626	    -18.23873538	    -20.71313354	     -7.49999987	     -9.82793844	     -1.39828851	      0.45324137	      5.55886762	    -10.68581785	      3.27738137	     17.33073347	     85.84405205	     15.47098812	    -12.17622417	   -367.54383007	     12.83864638	     91.64553480
     44.61666670	      4.47817763	      0.80850470	    182.13340577	      0.43949941	      0.87938807	      0.71081999	     18.80834853	      1.79934659	     -4.32561973	     24.30649117	      0.42422830	    -15.36758278	    -18.70620439	     -7.49999987	     34.65178443	     -3.81542366	     -0.21052359	     69.04869689	      1.20512710	    -19.41216003	    -21.11950572	     -7.49999987	     -9.99777750	     -1.31413456	      1.03746014	      6.83522375	    -11.46943687	      3.51912255	     19.00208789	     84.18165141	     15.07937493	    -11.56722939	   -366.70452905	     13.06951662	     89.50681203
     44.63333330	      4.31301520	      0.62613154	    182.08278150	      0.43685339	      0.88085189	      0.70758611	     17.08250365	      2.14825355	     -3.46121024	     23.07743210	      0.40277717	    -13.60362208	    -18.67225856	     -7.49999987	     34.68834012	     -3.65245875	     -0.64009265	     63.44285430	      1.10728669	    -20.22686720	    -20.47277982	     -7.49999987	    -10.45559755	     -1.83761914	      1.67529540	      7.97176959	    -12.18549770	      4.41456863	     19.79974238	     84.78848064	     15.37010869	    -10.95915188	   -367.30084884	     11.49386008	     89.70467891
     44.65000000	      4.34366423	      0.57023362	    182.14616723	      0.43618963	      0.88403420	      0.70668901	     15.33835978	      2.52445836	     -3.15971791	     21.35515166	      0.37271771	    -11.63991716	    -17.51909085	     -7.49999987	     34.45558343	     -3.80087808	     -1.23184991	     57.55657557	      1.00455175	    -21.69715372	    -20.71756802	     -7.49999987	    -10.52476684	     -2.12444457	      2.15779432	      8.50235929	    -13.03460474	      5.22605140	     20.33565070	     86.07311367	     15.45595649	    -10.37573104	   -368.22773513	     10.03942708	     89.18560902
     44.66666670	      4.38313567	      0.47641368	    182.22631247	      0.43856653	      0.88544919	      0.70752858	     13.66540768	      2.66857598	     -3.07720367	     19.57010715	      0.34156280	     -9.62751412	    -16.22253501	     -7.49999987	     34.04425068	     -4.13432241	     -2.36131339	     51.92951628	      0.90634104	    -23.16860871	    -22.28107605	     -7.49999987	    -10.65017529	     -2.42526866	      2.35560821	      9.10372068	    -13.63279410	      4.93125795	     20.01667185	     86.09101301	     15.23211309	    -10.08438237	   -368.96188073	      9.08841159	     89.48040551
     44.68333330	      4.62558793	      0.67790766	    182.38278573	      0.44299546	      0.88305484	      0.70936326	     12.45639204	      2.83776946	     -3.06935084	     18.13063251	      0.31643923	     -7.42536884	    -15.29955960	     -7.49999987	     33.94029184	     -4.63230758	     -3.75479560	     46.17687692	      0.80593854	    -23.86250225	    -23.81913822	     -7.49999987	    -10.56833383	     -2.23389853	      2.32253389	      9.68023392	    -14.30826851	      4.50785830	     19.41614933	     86.05306626	     15.04725858	     -9.87842014	   -369.34745408	      7.95978649	     89.61438136
     44.70000000	      5.03214666	      1.23359339	    182.32331001	      0.44729993	      0.87923655	      0.71194008	     11.81031759	      2.97933660	     -3.98716505	     17.63329573	      0.30775907	     -3.46130900	    -12.55095200	     -7.49999987	     33.89024892	     -4.86186103	     -4.86861156	     38.90401343	      0.67900313	    -22.69427067	    -21.98195393	     -7.49999987	    -10.41457251	     -1.40795123	      2.72513412	      9.90942149	    -15.23721152	      1.90394984	     19.21282186	     86.75498613	     14.77653454	     -9.09335456	   -375.44406283	      7.25257006	     94.31927149
